<svg width="23" height="23" viewBox="0 0 23 23" fill="none" xmlns="http://www.w3.org/2000/svg">
<path d="M11.4999 0C6.90686 0 3.17017 3.73669 3.17017 8.32968C3.17017 14.0297 10.6245 22.3977 10.9418 22.7512C11.2399 23.0832 11.7604 23.0826 12.058 22.7512C12.3753 22.3977 19.8296 14.0297 19.8296 8.32968C19.8295 3.73669 16.0929 0 11.4999 0ZM11.4999 21.1011C8.99114 18.1211 4.6702 12.2417 4.6702 8.32977C4.6702 4.56379 7.73396 1.50003 11.4999 1.50003C15.2658 1.50003 18.3296 4.56379 18.3296 8.32973C18.3295 12.2419 14.0093 18.1201 11.4999 21.1011Z" fill="#79C41A"/>
<path d="M11.4999 4.13882C9.18906 4.13882 7.30908 6.01885 7.30908 8.32972C7.30908 10.6406 9.18911 12.5206 11.4999 12.5206C13.8108 12.5206 15.6907 10.6406 15.6907 8.32972C15.6907 6.01885 13.8108 4.13882 11.4999 4.13882ZM11.4999 11.0206C10.0162 11.0206 8.80911 9.81349 8.80911 8.32972C8.80911 6.84595 10.0162 5.63886 11.4999 5.63886C12.9837 5.63886 14.1908 6.84595 14.1908 8.32972C14.1908 9.81349 12.9837 11.0206 11.4999 11.0206Z" fill="#79C41A"/>
</svg>
