<svg width="48" height="48" viewBox="0 0 48 48" fill="none" xmlns="http://www.w3.org/2000/svg">
<g clip-path="url(#clip0)">
<path d="M44.3021 30.1533C43.6418 30.1533 43.1067 30.6885 43.1067 31.3488V41.963C43.1043 43.943 41.5003 45.5475 39.5203 45.5494H5.97724C3.99728 45.5475 2.39323 43.943 2.3909 41.963V10.8109C2.39323 8.83137 3.99728 7.22685 5.97724 7.22452H16.5915C17.2518 7.22452 17.787 6.68937 17.787 6.02907C17.787 5.36924 17.2518 4.83362 16.5915 4.83362H5.97724C2.67762 4.83735 0.00373578 7.51124 0 10.8109V41.9635C0.00373578 45.2631 2.67762 47.937 5.97724 47.9408H39.5203C42.8199 47.937 45.4938 45.2631 45.4976 41.9635V31.3488C45.4976 30.6885 44.9624 30.1533 44.3021 30.1533Z" fill="#86CB2E"/>
<path d="M45.0241 1.75769C42.9232 -0.34322 39.5171 -0.34322 37.4162 1.75769L16.0887 23.0852C15.9425 23.2314 15.837 23.4126 15.7819 23.6115L12.9772 33.7369C12.8619 34.152 12.9791 34.5966 13.2836 34.9015C13.5885 35.206 14.033 35.3232 14.4482 35.2083L24.5735 32.4032C24.7725 32.3481 24.9537 32.2426 25.0998 32.0964L46.4269 10.7684C48.5246 8.66607 48.5246 5.26278 46.4269 3.16047L45.0241 1.75769ZM18.6934 23.8623L36.1484 6.40686L41.7778 12.0362L24.3223 29.4916L18.6934 23.8623ZM17.569 26.1187L22.0664 30.6166L15.8454 32.3402L17.569 26.1187ZM44.7365 9.07794L43.4687 10.3458L37.8388 4.71596L39.1071 3.44813C40.2741 2.28116 42.1663 2.28116 43.3332 3.44813L44.7365 4.85091C45.9016 6.01928 45.9016 7.91005 44.7365 9.07794Z" fill="#86CB2E"/>
</g>
<defs>
<clipPath id="clip0">
<rect width="48" height="48" fill="white"/>
</clipPath>
</defs>
</svg>
