<svg width="49" height="49" viewBox="0 0 49 49" fill="none" xmlns="http://www.w3.org/2000/svg">
<path d="M40.2961 39.7018C39.8997 39.7018 39.5784 40.0231 39.5784 40.4195V47.168C39.5784 47.3864 39.4005 47.5643 39.182 47.5643H35.3236V33.4292C35.3236 33.0328 35.0022 32.7114 34.6058 32.7114C34.2094 32.7114 33.888 33.0328 33.888 33.4292V47.5644H26.1184L28.3715 45.0856C28.6177 44.8148 28.7338 44.429 28.682 44.0533C28.681 44.046 28.6799 44.0388 28.6786 44.0315L26.5327 31.354L27.1108 30.4836C27.4305 30.7107 27.6767 30.9292 28.1385 30.9292C28.6082 30.9292 29.0474 30.6663 29.2635 30.2336L31.5269 25.6972L36.683 27.694C36.8695 27.774 39.5782 28.9938 39.5782 32.2148V37.0698C39.5781 37.4661 39.8994 37.7876 40.2959 37.7876C40.6923 37.7876 41.0137 37.4662 41.0137 37.0698V32.2148C41.0137 27.971 37.38 26.4283 37.2253 26.3647C37.2208 26.3628 37.2162 26.3609 37.2116 26.3592L28.6301 23.0358V21.0232C29.9931 19.9632 30.9382 18.3918 31.1754 16.5991C31.855 16.5513 32.4856 16.2975 33.0006 15.8547C33.6731 15.2763 34.059 14.4346 34.059 13.5457C34.059 12.808 33.7928 12.1037 33.3185 11.5548V8.89589C33.3184 3.99073 29.3278 0 24.4226 0C19.5174 0 15.5268 3.99073 15.5268 8.89589V11.6245C15.0474 12.1678 14.7867 12.8366 14.7867 13.5456C14.7867 14.4348 15.1724 15.2764 15.8451 15.8549C16.3597 16.2975 16.9899 16.551 17.6693 16.5989C17.9085 18.4252 18.8811 20.0552 20.3602 21.1294V23.0358L11.788 26.3591C11.7835 26.3609 11.779 26.3627 11.7745 26.3645C11.6197 26.4281 7.98608 27.9708 7.98608 32.2146V47.1678C7.98608 48.1779 8.80789 48.9997 9.81803 48.9997H16.6567C17.0531 48.9997 17.3745 48.6783 17.3745 48.2819C17.3745 47.8855 17.0531 47.5642 16.6567 47.5642H15.1123V33.4292C15.1123 33.0328 14.791 32.7114 14.3946 32.7114C13.9982 32.7114 13.6768 33.0328 13.6768 33.4292V47.5644H9.81813C9.59964 47.5644 9.42182 47.3865 9.42182 47.1681V32.2147C9.42182 28.9829 12.1487 27.7659 12.3162 27.6943L17.4683 25.697L19.7318 30.2335C19.9484 30.6673 20.3882 30.9292 20.8569 30.9292C21.3164 30.9292 21.5602 30.714 21.8846 30.4836L22.4627 31.354L20.317 44.0316C20.3157 44.0387 20.3147 44.0459 20.3136 44.0532C20.2617 44.4287 20.3778 44.8147 20.6241 45.0857L22.8772 47.5645H20.0066C19.6102 47.5645 19.2888 47.8858 19.2888 48.2822C19.2888 48.6786 19.6102 49 20.0066 49H39.1821C40.1923 49 41.0141 48.1781 41.0141 47.1681V40.4196C41.0139 40.0231 40.6925 39.7018 40.2961 39.7018ZM30.1823 25.1765L28.0722 29.4056C28.0197 29.3684 26.9014 28.5739 25.5344 27.6032C26.1276 26.8709 25.4336 27.7275 28.1409 24.3859L30.1823 25.1765ZM25.9396 29.652L25.3924 30.4757H23.6024L23.0552 29.652L24.4975 28.6277L25.9396 29.652ZM21.7957 23.2674V21.9242C22.6677 22.2757 23.5997 22.4387 24.5098 22.4387C25.4509 22.4387 26.3737 22.2381 27.1945 21.8792V23.2733L24.4975 26.6023L21.7957 23.2674ZM32.6233 13.5457C32.6232 14.0159 32.4196 14.4608 32.0645 14.7662C31.8298 14.9682 31.5462 15.0973 31.2356 15.1478V11.9439C32.0606 12.0779 32.6233 12.7622 32.6233 13.5457ZM17.61 15.1478C16.7757 15.0124 16.2223 14.3225 16.2223 13.5456C16.2223 12.7783 16.8584 12.1537 17.61 11.98V15.1478ZM17.6486 10.5174C17.4199 10.5436 17.1579 10.6055 16.9626 10.672V8.89589C16.9626 4.78229 20.3091 1.43564 24.4227 1.43564C28.5363 1.43564 31.8829 4.78229 31.8829 8.89589V10.6227C31.6742 10.5592 31.4578 10.5173 31.2357 10.4976C31.2357 9.80498 31.2418 9.93858 28.976 7.50265C28.5593 7.05495 27.87 6.96116 27.3455 7.30387C24.8448 8.93743 21.7942 9.75808 18.9796 9.55596C18.3622 9.50973 17.7999 9.91638 17.6486 10.5174ZM19.0456 15.7129V11.2348V10.9989C22.144 11.1803 25.3925 10.2599 28.0167 8.57921C29.0559 9.69492 29.6186 10.2801 29.8001 10.5027C29.8001 11.0659 29.8001 15.0683 29.8001 15.7128C29.8001 18.6267 27.4242 21.0029 24.5099 21.0029C21.2374 21.003 19.0456 18.4644 19.0456 15.7129ZM20.9228 29.4056L18.8127 25.1765L20.8505 24.3873L23.4575 27.6053C22.1318 28.5467 21.0431 29.3202 20.9228 29.4056ZM21.7464 44.1863L23.824 31.9112H25.1706L27.2483 44.1863L24.4974 47.2127L21.7464 44.1863Z" fill="#86CB2E"/>
</svg>
