<svg width="48" height="48" viewBox="0 0 48 48" fill="none" xmlns="http://www.w3.org/2000/svg">
<g clip-path="url(#clip0)">
<path d="M0 46V47C0 47.5522 0.44775 48 1.00003 48H47.0001C47.5523 48 48.0001 47.5522 48.0001 46.9999V45.9999H0V46Z" fill="#86CB2E"/>
<path d="M19.0001 18H3.00003C2.44775 18 2 18.4478 2 19V47.0001C2 47.5523 2.44775 48 3.00003 48H19.0001C19.5523 48 20.0001 47.5522 20.0001 47V19C20 18.4478 19.5523 18 19.0001 18ZM18 46H4.00006V20H18V46Z" fill="#86CB2E"/>
<path d="M45.0001 6H29C28.4478 6 28 6.44775 28 7.00003V47.0001C28 47.5523 28.4478 48.0001 29 48.0001H45.0001C45.5523 48.0001 46.0001 47.5523 46.0001 47.0001V7.00003C46.0001 6.44775 45.5523 6 45.0001 6ZM44 46H30.0001V7.99997H44V46Z" fill="#86CB2E"/>
<path d="M38 0H11C10.4477 0 10 0.44775 10 1.00003V16H12.0001V1.99997H37.0001V3.99994H39V0.999938C39 0.44775 38.5523 0 38 0Z" fill="#86CB2E"/>
<path d="M7.99997 22H6V40H7.99997V22Z" fill="#86CB2E"/>
<path d="M12 22H10V40H12V22Z" fill="#86CB2E"/>
<path d="M16 22H14V40H16V22Z" fill="#86CB2E"/>
<path d="M40 11H29V13H40V11Z" fill="#86CB2E"/>
<path d="M40 16H29V18H40V16Z" fill="#86CB2E"/>
<path d="M40 21H29V23H40V21Z" fill="#86CB2E"/>
<path d="M40 26H29V28H40V26Z" fill="#86CB2E"/>
<path d="M40 31H29V33H40V31Z" fill="#86CB2E"/>
<path d="M40 36H29V38H40V36Z" fill="#86CB2E"/>
<path d="M17 5H15V8H17V5Z" fill="#86CB2E"/>
<path d="M17 11H15V14H17V11Z" fill="#86CB2E"/>
<path d="M21 11H19V14H21V11Z" fill="#86CB2E"/>
<path d="M21 5H19V8H21V5Z" fill="#86CB2E"/>
<path d="M25 5H23V8H25V5Z" fill="#86CB2E"/>
<path d="M25 11H23V14H25V11Z" fill="#86CB2E"/>
<path d="M25 17H23V20H25V17Z" fill="#86CB2E"/>
<path d="M25 23H23V26H25V23Z" fill="#86CB2E"/>
<path d="M25 29H23V32H25V29Z" fill="#86CB2E"/>
<path d="M25 35H23V38H25V35Z" fill="#86CB2E"/>
<path d="M38 41H33C32.4477 41 32 41.4477 32 42V47H34V43H37V47H39V42C39 41.4477 38.5523 41 38 41Z" fill="#86CB2E"/>
<path d="M15 42H7.00003C6.44775 42 6 42.4477 6 43V47.0001H7.99997V44.0001H14V47.0001H15.9999V43C16 42.4477 15.5523 42 15 42Z" fill="#86CB2E"/>
</g>
<defs>
<clipPath id="clip0">
<rect width="48" height="48" fill="white"/>
</clipPath>
</defs>
</svg>
