<svg width="49" height="49" viewBox="0 0 49 49" fill="none" xmlns="http://www.w3.org/2000/svg">
<g clip-path="url(#clip0)">
<path d="M0.3791 48.0999C0.499141 48.1704 0.636096 48.2076 0.775525 48.2076C0.895567 48.2076 1.01396 48.1791 1.12121 48.1246L16.7171 40.0596L31.7961 48.1201C32.0102 48.2344 32.2668 48.2364 32.4825 48.1259L48.5739 39.8822C48.8263 39.7584 48.9901 39.5056 49 39.2247V1.58281C48.9889 1.3221 48.8465 1.0849 48.6221 0.952073C48.3973 0.819244 48.1209 0.809344 47.887 0.92526L32.1567 8.9932L17.0727 1.05685C16.8598 0.945061 16.6061 0.943411 16.3916 1.05231L0.428602 9.16769C0.174906 9.29103 0.0103128 9.54432 0 9.82647V47.4683C0.00948782 47.7299 0.15263 47.9683 0.3791 48.0999ZM31.3642 46.1965L17.4246 38.7758V2.92966L31.3642 10.2345V46.1965ZM47.5216 38.7734L32.8427 46.2947V10.3145L47.5216 2.79312V38.7734ZM1.47845 10.2794L15.9461 2.92265V38.7804L1.47845 46.2535V10.2794Z" fill="white"/>
<path d="M35.7947 17.8618C35.9118 17.8618 36.0273 17.8338 36.1317 17.7801L45.101 13.1781C45.3386 13.0589 45.4937 12.8217 45.5077 12.5565C45.5217 12.2908 45.3922 12.0388 45.1686 11.8952C44.945 11.7517 44.6617 11.7393 44.4261 11.8626L35.4568 16.4651C35.1528 16.6206 34.9952 16.9646 35.0757 17.2967C35.1557 17.6283 35.4531 17.8622 35.7947 17.8618Z" fill="white"/>
<path d="M35.7946 23.0731C35.9117 23.0727 36.0272 23.0451 36.1316 22.991L45.1009 18.389C45.3385 18.2698 45.4936 18.0326 45.5076 17.7674C45.5216 17.5021 45.3921 17.2497 45.1685 17.1061C44.9449 16.9625 44.6615 16.9502 44.426 17.0735L35.4567 21.6759C35.1527 21.8314 34.9947 22.1755 35.0751 22.5076C35.1556 22.8396 35.453 23.0735 35.7946 23.0731Z" fill="white"/>
<path d="M44.4261 22.2852L35.4568 26.8872C35.2204 27.0072 35.0665 27.244 35.0533 27.5084C35.0397 27.7729 35.1689 28.0245 35.3916 28.1676C35.614 28.3112 35.8965 28.3244 36.1317 28.2027L45.1009 23.6003C45.3385 23.4815 45.4937 23.2439 45.5077 22.9786C45.5217 22.7134 45.3922 22.4609 45.1686 22.3174C44.945 22.1738 44.6616 22.1614 44.4261 22.2852Z" fill="white"/>
<path d="M12.8048 24.4736L3.83515 29.076C3.59919 29.1961 3.44532 29.4329 3.43171 29.6973C3.41851 29.9621 3.54722 30.2133 3.76997 30.3569C3.99273 30.5 4.2753 30.5132 4.51043 30.3915L13.4797 25.7891C13.7157 25.6691 13.8699 25.4323 13.8831 25.1679C13.8968 24.9035 13.7676 24.6518 13.5449 24.5087C13.3221 24.3651 13.04 24.3519 12.8048 24.4736Z" fill="white"/>
<path d="M12.8048 29.6853L3.83515 34.2873C3.59919 34.4073 3.44532 34.6441 3.43171 34.9089C3.41851 35.1734 3.54722 35.4246 3.76997 35.5681C3.99273 35.7113 4.2753 35.7245 4.51043 35.6028L13.4797 31.0004C13.7157 30.8807 13.8699 30.6435 13.8831 30.3791C13.8968 30.1147 13.7676 29.8631 13.5449 29.7199C13.3221 29.5764 13.04 29.5632 12.8048 29.6853Z" fill="white"/>
<path d="M28.9923 21.8855L20.6962 17.5194C20.3357 17.3338 19.8927 17.4737 19.7037 17.8325C19.5148 18.1914 19.6505 18.6357 20.0078 18.8279L28.3038 23.1936C28.5377 23.3194 28.8211 23.3099 29.0463 23.1688C29.2716 23.0277 29.4036 22.7769 29.3924 22.5117C29.3813 22.246 29.2283 22.0072 28.9923 21.8855Z" fill="white"/>
<path d="M20.0077 12.5742L28.3038 16.9399C28.5377 17.0657 28.8211 17.0562 29.0463 16.9151C29.2715 16.774 29.4036 16.5232 29.3924 16.2576C29.3813 15.9923 29.2282 15.7531 28.9923 15.6318L20.6962 11.2658C20.3349 11.0756 19.8881 11.2146 19.6979 11.5756C19.5078 11.9369 19.6464 12.3841 20.0077 12.5742Z" fill="white"/>
<path d="M13.504 9.90899C13.2883 9.77451 13.0181 9.76461 12.7929 9.88218L3.85494 14.4842C3.6161 14.6145 3.47213 14.8699 3.48492 15.1417V21.3954C3.47502 21.6491 3.5996 21.8892 3.81287 22.0262C3.92424 22.0971 4.05377 22.1347 4.18578 22.1347C4.30087 22.1347 4.41431 22.1066 4.51661 22.0534L13.4591 17.451C13.6996 17.3214 13.8448 17.0661 13.8341 16.7934V10.5397C13.8431 10.286 13.7177 10.0459 13.504 9.90899ZM12.3556 16.3417L4.96337 20.1851V15.5934L12.3556 11.7496V16.3417Z" fill="white"/>
<path d="M28.9774 29.1812L20.6892 24.8152C20.4664 24.6947 20.1967 24.703 19.9817 24.8366C19.7643 24.9723 19.6352 25.2133 19.6422 25.4694V32.7655C19.6365 33.0374 19.7829 33.2899 20.0226 33.4194L28.3108 37.7854C28.4156 37.8411 28.5327 37.8704 28.6515 37.8704C28.7811 37.8704 28.9077 37.8333 29.017 37.764C29.2348 37.6283 29.3644 37.3873 29.3578 37.1312V29.8351C29.3635 29.5632 29.2171 29.3107 28.9774 29.1812ZM27.8793 35.9068L21.1207 32.3192V26.6938L27.8793 30.2814V35.9068Z" fill="white"/>
</g>
<defs>
<clipPath id="clip0">
<rect width="49" height="49" fill="white"/>
</clipPath>
</defs>
</svg>
