<svg width="155" height="23" viewBox="0 0 155 23" fill="none" xmlns="http://www.w3.org/2000/svg">
<path d="M5.43 0.999999L5.13 9.7C4.92 15.61 4.14 18.73 1.59 18.73C1.26 18.73 0.99 18.7 0.69 18.61L0.42 22C1.23 22.18 1.89 22.3 2.55 22.3C7.08 22.3 8.31 17.83 8.58 9.55L8.76 4.3H17.04V22H20.88V0.999999H5.43ZM36.5077 22.3C43.0177 22.3 47.8177 17.74 47.8177 11.5C47.8177 5.26 43.0177 0.699999 36.5077 0.699999C29.9977 0.699999 25.1977 5.29 25.1977 11.5C25.1977 17.71 29.9977 22.3 36.5077 22.3ZM36.5077 18.88C32.2777 18.88 29.1277 15.79 29.1277 11.5C29.1277 7.21 32.2777 4.12 36.5077 4.12C40.7377 4.12 43.8877 7.21 43.8877 11.5C43.8877 15.79 40.7377 18.88 36.5077 18.88ZM66.4095 0.999999H52.1595V22H55.9995L55.9695 4.3H66.3795L66.4095 0.999999ZM76.9959 22.3C83.5059 22.3 88.3059 17.74 88.3059 11.5C88.3059 5.26 83.5059 0.699999 76.9959 0.699999C70.4859 0.699999 65.6859 5.29 65.6859 11.5C65.6859 17.71 70.4859 22.3 76.9959 22.3ZM76.9959 18.88C72.7659 18.88 69.6159 15.79 69.6159 11.5C69.6159 7.21 72.7659 4.12 76.9959 4.12C81.2259 4.12 84.3759 7.21 84.3759 11.5C84.3759 15.79 81.2259 18.88 76.9959 18.88ZM107.565 0.999999H89.8048V4.3H96.7348V22H100.605V4.3H107.565V0.999999ZM110.958 22H114.588L125.868 7.12V22H129.708V0.999999H126.078L114.798 15.91V0.999999H110.958V22ZM135.626 0.999999V22H139.466V4.3H150.356V22H154.196V0.999999H135.626Z" fill="#86CB2E"/>
</svg>
