<svg width="48" height="48" viewBox="0 0 48 48" fill="none" xmlns="http://www.w3.org/2000/svg">
<path d="M16 0C9.3726 0 4 5.3726 4 12V20.8C4.0035 23.8913 6.5087 26.3965 9.6 26.4H10.4V24.8H9.6C7.392 24.7974 5.6026 23.008 5.6 20.8V12C5.6 6.2562 10.2562 1.6 16 1.6C21.7438 1.6 26.4 6.2562 26.4 12V20.8C26.3974 23.008 24.608 24.7974 22.4 24.8H21.6V26.4H22.4C25.4913 26.3965 27.9965 23.8913 28 20.8V12C28 5.3726 22.6274 0 16 0Z" fill="white"/>
<path d="M6.59278 37.7032L7.17758 36.7824L5.82638 35.9248L5.24158 36.8464C3.47288 39.6336 3.60418 43.2224 5.57198 45.8728V48H7.17198V45.6C7.17208 45.4183 7.11028 45.2419 6.99678 45.1C5.29598 42.9738 5.13368 40.002 6.59278 37.7032Z" fill="white"/>
<path d="M44.0001 0H33.6001C31.3921 0.0026 29.6027 1.792 29.6001 4V12C29.6027 14.208 31.3921 15.9974 33.6001 16H35.2001V19.2C35.2 19.5235 35.3948 19.8153 35.6937 19.9392C35.7908 19.9797 35.8949 20.0003 36.0001 20C36.2123 20 36.4157 19.9156 36.5657 19.7656L40.3313 16H44.0001C46.2081 15.9974 47.9975 14.208 48.0001 12V4C47.9975 1.792 46.2081 0.0026 44.0001 0ZM46.4001 12C46.4001 13.3255 45.3256 14.4 44.0001 14.4H40.0001C39.7879 14.4 39.5845 14.4844 39.4345 14.6344L36.8001 17.2688V15.2C36.8001 14.7582 36.4419 14.4 36.0001 14.4H33.6001C32.2746 14.4 31.2001 13.3255 31.2001 12V4C31.2001 2.6745 32.2746 1.6 33.6001 1.6H44.0001C45.3256 1.6 46.4001 2.6745 46.4001 4V12Z" fill="white"/>
<path d="M39.2001 4H33.6001V5.6H39.2001V4Z" fill="white"/>
<path d="M44 4H40.8V5.6H44V4Z" fill="white"/>
<path d="M44.0001 7.20001H33.6001V8.80001H44.0001V7.20001Z" fill="white"/>
<path d="M39.2001 10.4H33.6001V12H39.2001V10.4Z" fill="white"/>
<path d="M26.7583 36.8464L26.1735 35.9248L24.8223 36.7824L25.4071 37.704C26.8663 40.0025 26.704 42.9741 25.0031 45.1C24.8896 45.2419 24.8278 45.4183 24.8279 45.6V48H26.4279V45.8728C28.3957 43.2224 28.527 39.6336 26.7583 36.8464Z" fill="white"/>
<path d="M47.2 27.2H40C36.9984 27.2035 34.5334 29.5729 34.4112 32.572L32 36.9128V33.6C31.9965 30.5087 29.4913 28.0035 26.4 28H23.476L23.4544 27.9832L23.44 28H21.6C20.7163 28 20 27.2837 20 26.4V24.5176C22.4719 23.0904 23.9962 20.4543 24 17.6V11.2C23.9988 9.87449 23.669 8.56999 23.04 7.40319C22.8385 7.03199 22.3831 6.88129 22 7.05919L8.4592 13.4304C8.1788 13.5624 7.9999 13.8445 8 14.1544V17.6C8.0038 20.4543 9.5281 23.0904 12 24.5176V26.4C12 27.2837 11.2837 28 10.4 28H5.6C2.5087 28.0035 0.0035 30.5087 0 33.6V48H1.6V33.6C1.6026 31.392 3.392 29.6026 5.6 29.6H8.1456L15.3496 39.6656C15.4976 39.8725 15.7352 39.9966 15.9896 40H16C16.2518 40 16.4889 39.8814 16.64 39.68L24.24 29.6H26.4C28.608 29.6026 30.3974 31.392 30.4 33.6V40C30.4004 40.4418 30.7589 40.7997 31.2007 40.7993C31.4909 40.799 31.7582 40.6417 31.8992 40.388L35.6704 33.6H40.2568L32.4568 48H34.2768L42.08 33.6H42.4C45.4913 33.5965 47.9965 31.0913 48 28C48 27.5582 47.6418 27.2 47.2 27.2ZM9.6 17.6V14.6624L21.9528 8.84959C22.2483 9.59799 22.4 10.3954 22.4 11.2V17.6C22.4 21.1346 19.5346 24 16 24C12.4654 24 9.6 21.1346 9.6 17.6ZM16.0168 37.8496L13.548 34.4H18.6168L16.0168 37.8496ZM19.8272 32.8H12.4L10.1096 29.6H10.4C12.1673 29.6 13.6 28.1673 13.6 26.4V25.2312C15.1622 25.7229 16.8378 25.7229 18.4 25.2312V26.4C18.4 28.1673 19.8327 29.6 21.6 29.6H22.24L19.8272 32.8ZM42.4 32H36.08C36.4625 30.1387 38.0998 28.8021 40 28.8H46.32C45.9375 30.6613 44.3002 31.9979 42.4 32Z" fill="white"/>
</svg>
