<svg width="52" height="52" viewBox="0 0 52 52" fill="none" xmlns="http://www.w3.org/2000/svg">
<path d="M5.41662 8.66673C6.01495 8.66673 6.49999 8.18169 6.49999 7.58337C6.49999 6.98504 6.01495 6.5 5.41662 6.5C4.81829 6.5 4.33325 6.98504 4.33325 7.58337C4.33325 8.18169 4.81829 8.66673 5.41662 8.66673Z" fill="#86CB2E"/>
<path d="M9.75011 8.66673C10.3484 8.66673 10.8335 8.18169 10.8335 7.58337C10.8335 6.98504 10.3484 6.5 9.75011 6.5C9.15179 6.5 8.66675 6.98504 8.66675 7.58337C8.66675 8.18169 9.15179 8.66673 9.75011 8.66673Z" fill="#86CB2E"/>
<path d="M14.0834 8.66673C14.6817 8.66673 15.1667 8.18169 15.1667 7.58337C15.1667 6.98504 14.6817 6.5 14.0834 6.5C13.485 6.5 13 6.98504 13 7.58337C13 8.18169 13.485 8.66673 14.0834 8.66673Z" fill="#86CB2E"/>
<path d="M11.9166 23.8334H35.75C36.3488 23.8334 36.8334 23.3488 36.8334 22.75C36.8334 22.1512 36.3488 21.6666 35.75 21.6666H11.9166C11.3178 21.6666 10.8333 22.1512 10.8333 22.75C10.8333 23.3488 11.3179 23.8334 11.9166 23.8334Z" fill="#86CB2E"/>
<path d="M24.9166 34.6666H11.9166C11.3178 34.6666 10.8333 35.1512 10.8333 35.75C10.8333 36.3488 11.3178 36.8334 11.9166 36.8334H24.9166C25.5154 36.8334 26 36.3488 26 35.75C26 35.1512 25.5154 34.6666 24.9166 34.6666Z" fill="#86CB2E"/>
<path d="M47.8529 15.1666C47.7901 15.1666 47.7293 15.1824 47.6667 15.1853V6.49999C47.6667 4.11013 45.7222 2.16663 43.3334 2.16663H4.33337C1.94452 2.16663 0 4.11013 0 6.49999V45.5C0 47.8899 1.94452 49.8334 4.33337 49.8334H43.3334C45.7222 49.8334 47.6667 47.89 47.6667 45.5V25.3647L50.7855 22.2464C50.7855 22.2464 50.7855 22.2464 50.7855 22.2454C51.5578 21.4732 52 20.4046 52 19.3138C52 17.0265 50.1402 15.1666 47.8529 15.1666ZM2.16663 6.49999C2.16663 5.30562 3.13788 4.33336 4.33327 4.33336H43.3333C44.5289 4.33336 45.5 5.30562 45.5 6.49999V10.8334H2.16663V6.49999ZM45.5 45.5C45.5 46.6944 44.5288 47.6666 43.3334 47.6666H4.33337C3.13788 47.6666 2.16673 46.6944 2.16673 45.5V13H45.5V15.9067C45.2943 16.0481 45.0976 16.2036 44.9203 16.3812L33.1329 28.1667H11.9166C11.3178 28.1667 10.8333 28.6513 10.8333 29.2501C10.8333 29.8489 11.3178 30.3335 11.9166 30.3335H31.3948L30.3545 35.5375C30.2826 35.893 30.3947 36.2601 30.6507 36.5161C30.856 36.7213 31.1332 36.8335 31.4167 36.8335C31.4866 36.8335 31.5585 36.826 31.6283 36.8123L37.0429 35.729C37.2544 35.6866 37.447 35.584 37.5972 35.4327L45.5 27.5311V45.5ZM36.298 33.669L32.7984 34.3694L33.4988 30.8654L43.3329 21.0314L46.1347 23.8332L36.298 33.669ZM49.2535 20.7145L47.6666 22.3014L44.8646 19.4994L46.452 17.912C46.8202 17.5448 47.3302 17.3333 47.8528 17.3333C48.9446 17.3333 49.8333 18.2219 49.8333 19.3137C49.8334 19.8343 49.6217 20.3453 49.2535 20.7145Z" fill="#86CB2E"/>
</svg>
