<svg width="116" height="16" viewBox="0 0 116 16" fill="none" xmlns="http://www.w3.org/2000/svg">
<path d="M56.1659 8.15333L56.1659 7.65333L56.1659 8.15333ZM115.059 8.5069C115.254 8.31164 115.254 7.99506 115.059 7.7998L111.877 4.61781C111.681 4.42255 111.365 4.42255 111.17 4.61781C110.974 4.81308 110.974 5.12966 111.17 5.32492L113.998 8.15335L111.17 10.9818C110.974 11.177 110.974 11.4936 111.17 11.6889C111.365 11.8841 111.681 11.8841 111.877 11.6889L115.059 8.5069ZM-1.164e-07 8.65332L1.56016 8.65332L1.56016 7.65332L1.164e-07 7.65332L-1.164e-07 8.65332ZM7.80081 8.65332L10.9211 8.65332L10.9211 7.65332L7.80081 7.65332L7.80081 8.65332ZM17.1618 8.65332L20.2821 8.65333L20.2821 7.65333L17.1618 7.65332L17.1618 8.65332ZM26.5228 8.65333L29.6431 8.65333L29.6431 7.65333L26.5228 7.65333L26.5228 8.65333ZM35.8837 8.65333L39.0041 8.65333L39.0041 7.65333L35.8837 7.65333L35.8837 8.65333ZM45.2447 8.65333L48.365 8.65333L48.365 7.65333L45.2447 7.65333L45.2447 8.65333ZM54.6057 8.65333L56.1658 8.65333L56.1659 7.65333L54.6057 7.65333L54.6057 8.65333ZM56.1658 8.65333L57.5596 8.65333L57.5596 7.65333L56.1659 7.65333L56.1658 8.65333ZM63.1348 8.65334L65.9224 8.65334L65.9224 7.65334L63.1348 7.65334L63.1348 8.65334ZM71.4975 8.65334L74.2851 8.65334L74.2851 7.65334L71.4975 7.65334L71.4975 8.65334ZM79.8603 8.65334L82.6479 8.65334L82.6479 7.65334L79.8603 7.65334L79.8603 8.65334ZM88.223 8.65334L91.0106 8.65334L91.0106 7.65334L88.223 7.65334L88.223 8.65334ZM96.5858 8.65334L99.3734 8.65335L99.3734 7.65335L96.5858 7.65334L96.5858 8.65334ZM104.949 8.65335L107.736 8.65335L107.736 7.65335L104.949 7.65335L104.949 8.65335ZM113.311 8.65335L114.705 8.65335L114.705 7.65335L113.311 7.65335L113.311 8.65335ZM56.1659 8.15333L56.1659 7.15333L56.1659 8.15333ZM115.412 8.86046C115.803 8.46993 115.803 7.83677 115.412 7.44624L109.048 1.08228C108.658 0.691755 108.025 0.691755 107.634 1.08228C107.243 1.4728 107.243 2.10597 107.634 2.49649L113.291 8.15335L107.634 13.8102C107.243 14.2007 107.243 14.8339 107.634 15.2244C108.025 15.6149 108.658 15.6149 109.048 15.2244L115.412 8.86046ZM-2.328e-07 9.15332L1.56016 9.15332L1.56016 7.15332L2.328e-07 7.15332L-2.328e-07 9.15332ZM7.80081 9.15332L10.9211 9.15332L10.9211 7.15332L7.80081 7.15332L7.80081 9.15332ZM17.1618 9.15332L20.2821 9.15333L20.2821 7.15333L17.1618 7.15332L17.1618 9.15332ZM26.5228 9.15333L29.6431 9.15333L29.6431 7.15333L26.5228 7.15333L26.5228 9.15333ZM35.8837 9.15333L39.0041 9.15333L39.0041 7.15333L35.8837 7.15333L35.8837 9.15333ZM45.2447 9.15333L48.365 9.15333L48.365 7.15333L45.2447 7.15333L45.2447 9.15333ZM54.6057 9.15333L56.1659 9.15333L56.1659 7.15333L54.6057 7.15333L54.6057 9.15333ZM56.1659 9.15333L57.5596 9.15333L57.5596 7.15333L56.1659 7.15333L56.1659 9.15333ZM63.1348 9.15334L65.9224 9.15334L65.9224 7.15334L63.1348 7.15334L63.1348 9.15334ZM71.4975 9.15334L74.2851 9.15334L74.2851 7.15334L71.4975 7.15334L71.4975 9.15334ZM79.8603 9.15334L82.6479 9.15334L82.6479 7.15334L79.8603 7.15334L79.8603 9.15334ZM88.223 9.15334L91.0106 9.15334L91.0106 7.15334L88.223 7.15334L88.223 9.15334ZM96.5858 9.15334L99.3733 9.15335L99.3734 7.15334L96.5858 7.15334L96.5858 9.15334ZM104.949 9.15335L107.736 9.15335L107.736 7.15335L104.949 7.15335L104.949 9.15335ZM113.311 9.15335L114.705 9.15335L114.705 7.15335L113.311 7.15335L113.311 9.15335Z" fill="#8D8F9A"/>
</svg>
